# xmcd
#
# Track frame offsets:
#	150
#	14654
#	26256
#	43204
#	59314
#	71725
#	82977
#	92195
#	107009
#	121946
#	135492
#	149574
#	160706
#	175433
#
# Disc length: 2530 seconds
#
# Revision: 1
# Processed by: cddbd v1.5.2PL0 Copyright (c) Steve Scherf et al.
# Submitted via: audiograbber 1.83.01
#
DISCID=c009e00e
DTITLE=Dennis Schütze - Sideburner
DYEAR=2007
DGENRE=Country
TTITLE0=Apache
TTITLE1=Act naturally
TTITLE2=That's how I got to Memphis
TTITLE3=Jackson
TTITLE4=Guitar man
TTITLE5=Brown eyed handsome man
TTITLE6=Kiss an Angel good morning
TTITLE7=Jolene
TTITLE8=Don't mess around with Jim
TTITLE9=Understand your man - Don't think twice it's alright
TTITLE10=Saginaw, Michigan
TTITLE11=Speedball Tucker
TTITLE12=Deeper than the holler
TTITLE13=I got a name
EXTD=
EXTT0=
EXTT1=
EXTT2=
EXTT3=
EXTT4=
EXTT5=
EXTT6=
EXTT7=
EXTT8=
EXTT9=
EXTT10=
EXTT11=
EXTT12=
EXTT13=
PLAYORDER=
